# xmcd
#
# Track frame offsets:
#	150
#	12599
#	26410
#	39257
#	52925
#	65366
#	79677
#	94710
#	108458
#	120657
#	135371
#	149987
#	163171
#	176590
#	190468
#	203148
#	216718
#	228836
#	241806
#	255209
#	269110
#	280588
#	294944
#	307670
#	321920
#
# Disc length: 4466 seconds
#
# Revision: 0
# Processed by: cddbd v1.5.1PL0 Copyright (c) Steve Scherf et al.
# Submitted via: EasyCDDAExtractor 4.6.9.1
#
DISCID=65117019
DTITLE=Hank Snow - Wanderin' On - The Best Of The Yodeling Ranger
DYEAR=2003
DGENRE=Country
TTITLE0=Wanderin' On
TTITLE1=Prisoned Cowboy
TTITLE2=Lonesome Blue Yodel
TTITLE3=My San Antonio Mama
TTITLE4=My Little Swiss Maiden
TTITLE5=The Blue Velvet Band
TTITLE6=Answer To 'The Blue Velvet Band'
TTITLE7=The Hobo's Last Ride
TTITLE8=There's A Picture On Pinto's Bridle
TTITLE9=Broken Wedding Ring
TTITLE10=Galveston Rose
TTITLE11=Let's Pretend
TTITLE12=We'll Never Say Goodbye, Just Say So Long
TTITLE13=When My Blue Moon Turns To Gold Again
TTITLE14=Blue Ranger
TTITLE15=Just A Faded Petal From A Beautiful Bouquet
TTITLE16=Brand On My Heart
TTITLE17=On That Old Hawaiian Shore With You
TTITLE18=Linda Lou
TTITLE19=My Mother
TTITLE20=My Filipino Rose
TTITLE21=The Night I Stole Old Sammy Morgan's Gin
TTITLE22=Out On The Open Range
TTITLE23=Journey My Baby Back Home
TTITLE24=I Knew That We'd Meet Again
EXTD=
EXTT0=
EXTT1=
EXTT2=
EXTT3=
EXTT4=
EXTT5=
EXTT6=
EXTT7=
EXTT8=
EXTT9=
EXTT10=
EXTT11=
EXTT12=
EXTT13=
EXTT14=
EXTT15=
EXTT16=
EXTT17=
EXTT18=
EXTT19=
EXTT20=
EXTT21=
EXTT22=
EXTT23=
EXTT24=
PLAYORDER=
